<svg xmlns="http://www.w3.org/2000/svg" width="4.47mm" height="9.88mm" viewBox="0 0 12.68 28">
  <defs>
    <style>
      .cls-1 {
        fill: none;
      }
    </style>
  </defs>
  <title>Element 132</title>
  <g id="Ebene_2" data-name="Ebene 2">
    <g id="Ebene_1-2" data-name="Ebene 1">
      <g>
        <path d="M12.68,18.35v1.4H9.14C9,19.29,9,18.86,8.86,18.4c-.5.38-.88.65-1.18.84a6.14,6.14,0,0,1-2.77.84,3.13,3.13,0,0,1-3.39-2.83,3.84,3.84,0,0,1,0-.48c0-2.8,2.48-3.87,7.18-4V11.36A2.09,2.09,0,0,0,6.92,9a1.88,1.88,0,0,0-.58,0,8.91,8.91,0,0,0-2.56.42v2.7H2.23V8.37a12.34,12.34,0,0,1,4.33-.88c2.66,0,4,1.28,4,3.85v4.92c0,.79,0,1.49.08,2.11Zm-4-4.3c-3.54,0-5.24.76-5.24,2.55a1.77,1.77,0,0,0,1.57,2h.28A5.63,5.63,0,0,0,8.72,17Z"/>
        <rect class="cls-1" width="12.68" height="28"/>
      </g>
    </g>
  </g>
</svg>
