<svg xmlns="http://www.w3.org/2000/svg" width="4.45mm" height="9.88mm" viewBox="0 0 12.61 28">
  <defs>
    <style>
      .cls-1 {
        fill: none;
      }
    </style>
  </defs>
  <title>Element 131</title>
  <g id="Ebene_2" data-name="Ebene 2">
    <g id="Ebene_1-2" data-name="Ebene 1">
      <g>
        <path d="M12.57,6.41a4.75,4.75,0,0,0-2.8,2,4,4,0,0,1,1.33,3.26c0,2.59-1.69,4.11-4.53,4.11a7.8,7.8,0,0,1-1.18-.08A2,2,0,0,0,4.91,17c0,1.05,1.18,1.56,2.61,1.88,2.15.48,4.84,1,4.84,3.76a2.92,2.92,0,0,1-1.62,2.78,8.29,8.29,0,0,1-4.06.89c-3.55,0-5.27-1.19-5.27-3.37a3.34,3.34,0,0,1,.4-1.58,6.73,6.73,0,0,1,2-2.37,2.44,2.44,0,0,1-.65-1.74,3.09,3.09,0,0,1,.84-2,3.7,3.7,0,0,1-2-3.55C2,8.94,3.73,7.36,6.52,7.36a5.66,5.66,0,0,1,2,.31A7.38,7.38,0,0,1,12.14,4.9Zm-3,14.87a8.68,8.68,0,0,0-2.36-.86A14.44,14.44,0,0,1,5,19.75a4.25,4.25,0,0,0-1.91,3c0,1.43,1.18,2.13,3.68,2.13s3.69-.7,3.69-2.1A1.59,1.59,0,0,0,9.61,21.28ZM3.8,11.57a2.75,2.75,0,1,0,5.49,0A2.57,2.57,0,0,0,7,8.75a2.26,2.26,0,0,0-.52,0,2.54,2.54,0,0,0-2.71,2.34A2.57,2.57,0,0,0,3.8,11.57Z"/>
        <rect class="cls-1" width="12.61" height="28"/>
      </g>
    </g>
  </g>
</svg>
