<svg xmlns="http://www.w3.org/2000/svg" width="4.43mm" height="9.88mm" viewBox="0 0 12.57 28">
  <defs>
    <style>
      .cls-1 {
        fill: none;
      }
    </style>
  </defs>
  <title>Element 125</title>
  <g id="Ebene_2" data-name="Ebene 2">
    <g id="Ebene_1-2" data-name="Ebene 1">
      <g>
        <path d="M12.57,6A4.76,4.76,0,0,0,9.79,8a4,4,0,0,1,1.33,3.26c0,2.59-1.69,4.11-4.53,4.11a6.69,6.69,0,0,1-1.18-.08,2,2,0,0,0-.48,1.29c0,1.05,1.18,1.56,2.61,1.88,2.15.48,4.84,1,4.84,3.77A2.92,2.92,0,0,1,10.76,25a8.29,8.29,0,0,1-4.06.89c-3.55,0-5.27-1.18-5.27-3.37a3.37,3.37,0,0,1,.4-1.58,6.7,6.7,0,0,1,2-2.36,2.48,2.48,0,0,1-.65-1.75,3.11,3.11,0,0,1,.84-2,3.7,3.7,0,0,1-2-3.55C2.06,8.54,3.74,7,6.54,7a5.45,5.45,0,0,1,2,.32,7.41,7.41,0,0,1,3.62-2.83Zm-3,14.87A8.56,8.56,0,0,0,7.24,20,13.31,13.31,0,0,1,5,19.35a4.23,4.23,0,0,0-2,2.92c0,1.43,1.18,2.12,3.68,2.12s3.69-.69,3.69-2.1a1.59,1.59,0,0,0-.81-1.41ZM3.79,11.17a2.75,2.75,0,1,0,5.49,0A2.52,2.52,0,0,0,6.51,8.33a2.53,2.53,0,0,0-2.73,2.31,2.34,2.34,0,0,0,0,.53Z"/>
        <rect class="cls-1" width="12.57" height="28"/>
      </g>
    </g>
  </g>
</svg>
