<svg xmlns="http://www.w3.org/2000/svg" width="3.72mm" height="9.88mm" viewBox="0 0 10.55 28">
  <defs>
    <style>
      .cls-1 {
        fill: none;
      }
    </style>
  </defs>
  <title>Element 145</title>
  <g id="Ebene_2" data-name="Ebene 2">
    <g id="Ebene_1-2" data-name="Ebene 1">
      <g>
        <path d="M8.39,10.06a8.71,8.71,0,0,0-2-.25q-2.52,0-2.52,1.62c0,1.07,1.05,1.8,2.36,2.25,1.85.68,4.28,1.45,4.28,4.09,0,2.17-1.48,3.28-4.41,3.28a10.73,10.73,0,0,1-4.23-.78v-3H3.44v1.91A8.7,8.7,0,0,0,6,19.61c1.75,0,2.64-.59,2.64-1.77,0-3.12-6.62-2.07-6.59-6.32,0-2.1,1.47-3.14,4.4-3.14A10.57,10.57,0,0,1,10,8.94v3H8.41Z"/>
        <rect class="cls-1" width="10.55" height="28"/>
      </g>
    </g>
  </g>
</svg>
