<svg xmlns="http://www.w3.org/2000/svg" width="4.41mm" height="9.88mm" viewBox="0 0 12.5 28">
  <defs>
    <style>
      .cls-1 {
        fill: none;
      }
    </style>
  </defs>
  <title>Element 127</title>
  <g id="Ebene_2" data-name="Ebene 2">
    <g id="Ebene_1-2" data-name="Ebene 1">
      <g>
        <path d="M11.16,6a4.75,4.75,0,0,0-2.8,2,4,4,0,0,1,1.33,3.26c0,2.59-1.69,4.11-4.53,4.11A6.69,6.69,0,0,1,4,15.26a2,2,0,0,0-.48,1.29c0,1.05,1.18,1.56,2.61,1.88,2.15.48,4.84,1,4.84,3.77A2.92,2.92,0,0,1,9.33,25a8.26,8.26,0,0,1-4.06.89C1.72,25.86,0,24.68,0,22.49a3.37,3.37,0,0,1,.4-1.58,6.8,6.8,0,0,1,2-2.36,2.48,2.48,0,0,1-.65-1.75,3.11,3.11,0,0,1,.84-2,3.7,3.7,0,0,1-2-3.55C.63,8.54,2.32,7,5.11,7a5.45,5.45,0,0,1,2,.32,7.38,7.38,0,0,1,3.6-2.85Zm-3,14.87A8.68,8.68,0,0,0,5.84,20a13.42,13.42,0,0,1-2.24-.67,4.25,4.25,0,0,0-2,2.92c0,1.43,1.18,2.12,3.69,2.12S9,23.7,9,22.29a1.58,1.58,0,0,0-.8-1.41ZM2.39,11.17a2.75,2.75,0,1,0,5.49,0,2.54,2.54,0,0,0-2.8-2.82A2.53,2.53,0,0,0,2.39,10.7a2.44,2.44,0,0,0,0,.47Z"/>
        <rect class="cls-1" width="12.5" height="28"/>
      </g>
    </g>
  </g>
</svg>
