<svg xmlns="http://www.w3.org/2000/svg" width="4.67mm" height="9.88mm" viewBox="0 0 13.23 28">
  <defs>
    <style>
      .cls-1 {
        fill: none;
      }
    </style>
  </defs>
  <title>Element 147</title>
  <g id="Ebene_2" data-name="Ebene 2">
    <g id="Ebene_1-2" data-name="Ebene 1">
      <g>
        <path d="M13.23,19.36v1.4H9.69c-.11-.46-.19-.89-.27-1.35-.51.38-.89.65-1.19.84a6.14,6.14,0,0,1-2.77.84,3.13,3.13,0,0,1-3.39-2.83,3.84,3.84,0,0,1,0-.48c0-2.8,2.48-3.87,7.18-4V12.34A2.09,2.09,0,0,0,7.47,10a2.81,2.81,0,0,0-.58,0,8.8,8.8,0,0,0-2.55.43v2.69H2.78V9.38A12.39,12.39,0,0,1,7.11,8.5c2.66,0,4,1.28,4,3.85v4.92c0,.79,0,1.49.09,2.11Zm-4-4.3c-3.54,0-5.24.76-5.24,2.56A1.77,1.77,0,0,0,5.6,19.57h.28A5.63,5.63,0,0,0,9.27,18Z"/>
        <rect class="cls-1" width="13.23" height="28"/>
      </g>
    </g>
  </g>
</svg>
