<svg xmlns="http://www.w3.org/2000/svg" width="4.66mm" height="9.88mm" viewBox="0 0 13.2 28">
  <defs>
    <style>
      .cls-1 {
        fill: none;
      }
    </style>
  </defs>
  <title>Element 120</title>
  <g id="Ebene_2" data-name="Ebene 2">
    <g id="Ebene_1-2" data-name="Ebene 1">
      <g>
        <path d="M13.19,18v1.4H9.64c-.1-.46-.19-.89-.27-1.35-.51.38-.88.65-1.18.84a6.21,6.21,0,0,1-2.78.84A3.12,3.12,0,0,1,2,16.85a3.85,3.85,0,0,1,0-.48c0-2.8,2.48-3.87,7.19-4V11A2.09,2.09,0,0,0,7.43,8.6a2,2,0,0,0-.59,0A8.9,8.9,0,0,0,4.29,9v2.61H2.73V8a12.4,12.4,0,0,1,4.34-.88c2.66,0,4,1.28,4,3.85v4.92c0,.79,0,1.49.08,2.11Zm-4-4.3c-3.54,0-5.25.76-5.25,2.56a1.78,1.78,0,0,0,1.57,1.95h.29a5.66,5.66,0,0,0,3.39-1.59Z"/>
        <rect class="cls-1" width="13.2" height="28"/>
      </g>
    </g>
  </g>
</svg>
