<svg xmlns="http://www.w3.org/2000/svg" width="20.47mm" height="20.07mm" viewBox="0 0 58.04 56.88">
  <defs>
    <style>
      .cls-1 {
        fill: none;
      }
    </style>
  </defs>
  <title>Element 110</title>
  <g id="Ebene_2" data-name="Ebene 2">
    <g id="Ebene_1-2" data-name="Ebene 1">
      <g>
        <path d="M57.91,39.22l.13-.07v6.39h-18V39.15h3.39V26.77c0-2.9-1.18-4.33-3.54-4.33-1.82,0-3.9,1-6.19,3V39.15h3.42v6.39H20.85V39.15h3.43V26.77c0-2.9-1.19-4.3-3.55-4.3-1.75,0-3.77,1-6.12,3V39.15H18v6.39H0V39.15H5V21.26h-5v-6.4H13.25l.69,3a19.71,19.71,0,0,1,10.69-3.55c3.9,0,6.52,1.48,7.8,4.37,4.17-2.89,7.93-4.3,11.36-4.3,6,0,9,3.55,9,10.76V39.29Z"/>
        <rect class="cls-1" width="58.04" height="56.88"/>
      </g>
    </g>
  </g>
</svg>
