<svg xmlns="http://www.w3.org/2000/svg" width="4.6mm" height="9.88mm" viewBox="0 0 13.03 28">
  <defs>
    <style>
      .cls-1 {
        fill: none;
      }
    </style>
  </defs>
  <title>Element 121</title>
  <g id="Ebene_2" data-name="Ebene 2">
    <g id="Ebene_1-2" data-name="Ebene 1">
      <g>
        <path d="M4.92,7.68A6.38,6.38,0,0,1,7.82,7c3.37,0,5.2,2.12,5.2,6.1,0,4.3-2,6.6-5.81,6.6A9.13,9.13,0,0,1,3,18.61V2.54H1V1.13H4.93Zm0,9.9a5.66,5.66,0,0,0,2.36.51c2.48,0,3.82-1.69,3.82-4.93,0-3-1.18-4.63-3.61-4.63A4.27,4.27,0,0,0,5,9.28Z"/>
        <rect class="cls-1" width="13.03" height="28"/>
      </g>
    </g>
  </g>
</svg>
