<svg xmlns="http://www.w3.org/2000/svg" width="10.08mm" height="20.07mm" viewBox="0 0 28.59 56.88">
  <defs>
    <style>
      .cls-1 {
        fill: none;
      }
    </style>
  </defs>
  <title>Element 109</title>
  <g id="Ebene_2" data-name="Ebene 2">
    <g id="Ebene_1-2" data-name="Ebene 1">
      <g>
        <path d="M16.61,21.45h-.07a14.68,14.68,0,0,0-3.3-.4c-2.75,0-4.1.74-4.1,2.15,0,4.73,15.36,2.08,15.36,13.58,0,6.67-5,9.46-12.64,9.46A29.71,29.71,0,0,1,0,44.12l.07-.2V35.31H6.72V38.6a14.63,14.63,0,0,0,4.44.81c2.83,0,4.24-.75,4.24-2.29,0-1.94-2.41-3.16-5.44-4C5.72,31.89,0,30,.07,23.63s5.17-9.35,13.46-9.35A26.42,26.42,0,0,1,23.28,16V24.7H16.61Z"/>
        <rect class="cls-1" width="28.59" height="56.88"/>
      </g>
    </g>
  </g>
</svg>
