<svg xmlns="http://www.w3.org/2000/svg" width="3.52mm" height="9.88mm" viewBox="0 0 9.98 28">
  <defs>
    <style>
      .cls-1 {
        fill: none;
      }
    </style>
  </defs>
  <title>Element 128</title>
  <g id="Ebene_2" data-name="Ebene 2">
    <g id="Ebene_1-2" data-name="Ebene 1">
      <g>
        <path d="M9.65,18.72a9.59,9.59,0,0,1-4.11,1C2,19.67,0,17.41,0,13.43S1.94,7,5.41,7C8.32,7,10,8.88,10,12.08a7.4,7.4,0,0,1-.13,1.33h-8c.08,3.09,1.39,4.72,3.9,4.72a8.48,8.48,0,0,0,3.54-.84ZM8.22,12.05h0c0-2.29-1-3.54-2.93-3.54S2.17,9.69,1.88,12.05Z"/>
        <rect class="cls-1" width="9.98" height="28"/>
      </g>
    </g>
  </g>
</svg>
