<svg xmlns="http://www.w3.org/2000/svg" width="4.64mm" height="9.88mm" viewBox="0 0 13.16 28">
  <defs>
    <style>
      .cls-1 {
        fill: none;
      }
    </style>
  </defs>
  <title>Element 123</title>
  <g id="Ebene_2" data-name="Ebene 2">
    <g id="Ebene_1-2" data-name="Ebene 1">
      <g>
        <path d="M13.16,18v1.39H9.61c-.1-.46-.18-.89-.27-1.35-.5.38-.88.65-1.18.84a6.05,6.05,0,0,1-2.77.84A3.13,3.13,0,0,1,2,16.83a3.69,3.69,0,0,1,0-.47c0-2.8,2.48-3.87,7.18-4V11A2.09,2.09,0,0,0,7.42,8.6a1.88,1.88,0,0,0-.58,0A9.14,9.14,0,0,0,4.29,9v2.62H2.73V8a12.39,12.39,0,0,1,4.33-.88c2.66,0,4,1.29,4,3.85v4.92c0,.79,0,1.49.09,2.11ZM2.91,3.86c-.17-1.51,2.52-1.51,2.36,0,.1,1.55-2.47,1.55-2.36,0Zm6.29,9.8c-3.54,0-5.24.75-5.24,2.55a1.77,1.77,0,0,0,1.57,1.95H5.8a5.7,5.7,0,0,0,3.39-1.58Zm-.88-9.8c-.17-1.51,2.52-1.51,2.36,0,.16,1.55-2.52,1.55-2.36,0Z"/>
        <rect class="cls-1" width="13.14" height="28"/>
      </g>
    </g>
  </g>
</svg>
