<svg xmlns="http://www.w3.org/2000/svg" width="5.25mm" height="9.88mm" viewBox="0 0 14.88 28">
  <defs>
    <style>
      .cls-1 {
        fill: none;
      }
    </style>
  </defs>
  <title>Element 142</title>
  <g id="Ebene_2" data-name="Ebene 2">
    <g id="Ebene_1-2" data-name="Ebene 1">
      <g>
        <path d="M6.49,9.76a5.78,5.78,0,0,1,3.66-1.37c3,0,4.73,2,4.73,6,0,4.42-2,6.67-5.76,6.67a7.31,7.31,0,0,1-2.36-.4v4.91h2.1V27H2.76V25.57h2.1V10.08h-2V8.67H6.37Zm.21,9.18h0a5,5,0,0,0,2.36.59q3.8,0,3.8-4.93,0-4.54-3.1-4.54a4.35,4.35,0,0,0-3,1.39Z"/>
        <rect class="cls-1" width="14.88" height="28"/>
      </g>
    </g>
  </g>
</svg>
