<svg xmlns="http://www.w3.org/2000/svg" width="30.03mm" height="9.88mm" viewBox="0 0 85.14 28">
  <defs>
    <style>
      .cls-1 {
        fill: none;
      }
    </style>
  </defs>
  <title>Element 148</title>
  <g id="Ebene_2" data-name="Ebene 2">
    <g id="Ebene_1-2" data-name="Ebene 1">
      <g>
        <path d="M23.67,19.36h-.08v1.4h-5.9v-1.4h1.87V12.77c0-1.77-.72-2.65-2.21-2.65A5.84,5.84,0,0,0,13.59,12v7.41h1.85v1.39H9.85V19.38h1.88v-6.6c0-1.77-.72-2.65-2.17-2.65A6.21,6.21,0,0,0,5.77,12v7.43H7.62v1.39H1.71V19.39H3.82V10.1h-2V8.67H5.48l.17,1.59A7.84,7.84,0,0,1,10.2,8.43a3,3,0,0,1,3.17,2,8.06,8.06,0,0,1,4.79-2c2.25,0,3.39,1.37,3.39,4.08v6.83Z"/>
        <rect class="cls-1" width="85.14" height="28"/>
      </g>
    </g>
  </g>
</svg>
