<svg xmlns="http://www.w3.org/2000/svg" width="3.75mm" height="9.88mm" viewBox="0 0 10.63 28">
  <defs>
    <style>
      .cls-1 {
        fill: none;
      }
    </style>
  </defs>
  <title>Element 117</title>
  <g id="Ebene_2" data-name="Ebene 2">
    <g id="Ebene_1-2" data-name="Ebene 1">
      <g>
        <path d="M8.47,8.65a9.22,9.22,0,0,0-2-.24C4.82,8.41,4,9,4,10S5,11.84,6.34,12.28c1.86.68,4.28,1.46,4.28,4.09,0,2.17-1.48,3.29-4.41,3.29A11,11,0,0,1,2,18.88v-3H3.52v1.91a8.76,8.76,0,0,0,2.59.46c1.75,0,2.63-.59,2.63-1.77,0-3.12-6.61-2.07-6.59-6.32C2.15,8,3.63,7,6.56,7A10.27,10.27,0,0,1,10,7.54v3H8.49Z"/>
        <rect class="cls-1" width="10.63" height="28"/>
      </g>
    </g>
  </g>
</svg>
