<svg xmlns="http://www.w3.org/2000/svg" width="4.2mm" height="9.88mm" viewBox="0 0 11.9 28">
  <defs>
    <style>
      .cls-1 {
        fill: none;
      }
    </style>
  </defs>
  <title>Element 137</title>
  <g id="Ebene_2" data-name="Ebene 2">
    <g id="Ebene_1-2" data-name="Ebene 1">
      <g>
        <path d="M11.56,19.07A9.59,9.59,0,0,1,7.45,20c-3.54,0-5.54-2.26-5.54-6.24S3.85,7.36,7.32,7.36c2.91,0,4.57,1.87,4.57,5.08a7.38,7.38,0,0,1-.13,1.32h-8c.08,3.09,1.4,4.72,3.9,4.72a8.48,8.48,0,0,0,3.54-.84ZM10.13,12.4h0c0-2.29-1-3.54-2.93-3.54S4.08,10,3.79,12.4Z"/>
        <rect class="cls-1" width="11.9" height="28"/>
      </g>
    </g>
  </g>
</svg>
