<svg xmlns="http://www.w3.org/2000/svg" width="4.66mm" height="9.88mm" viewBox="0 0 13.2 28">
  <defs>
    <style>
      .cls-1 {
        fill: none;
      }
    </style>
  </defs>
  <title>Element 130</title>
  <g id="Ebene_2" data-name="Ebene 2">
    <g id="Ebene_1-2" data-name="Ebene 1">
      <g>
        <path d="M13.2,18.35v1.4H9.66c-.11-.46-.19-.89-.27-1.35-.51.38-.89.65-1.18.84a6.21,6.21,0,0,1-2.78.84,3.12,3.12,0,0,1-3.38-2.83,2.57,2.57,0,0,1,0-.48c0-2.8,2.48-3.87,7.18-4V11.36A2.08,2.08,0,0,0,7.45,9a1.94,1.94,0,0,0-.59,0,8.79,8.79,0,0,0-2.55.42v2.7H2.75V8.37a12.4,12.4,0,0,1,4.34-.88q4,0,4,3.85v4.92c0,.79,0,1.49.08,2.11Zm-3.95-4.3C5.7,14.05,4,14.81,4,16.6a1.78,1.78,0,0,0,1.57,2h.29A5.68,5.68,0,0,0,9.25,17Z"/>
        <rect class="cls-1" width="13.2" height="28"/>
      </g>
    </g>
  </g>
</svg>
