<svg xmlns="http://www.w3.org/2000/svg" width="6.48mm" height="20.07mm" viewBox="0 0 18.37 56.88">
  <defs>
    <style>
      .cls-1 {
        fill: #c61088;
      }

      .cls-2 {
        fill: none;
      }
    </style>
  </defs>
  <title>Element 111</title>
  <g id="Ebene_2" data-name="Ebene 2">
    <g id="Ebene_1-2" data-name="Ebene 1">
      <g>
        <path class="cls-1" d="M2,52c3-3,3.84-4.3,3.84-6a4.59,4.59,0,0,0-1.18-2.5A5.38,5.38,0,0,1,3.45,40.2c0-2.9,2.22-4.84,5.24-4.84,3.84,0,6.32,3.16,6.32,7.73,0,4.37-2.62,8.95-7.93,13.79Zm6.67-37.6a5.44,5.44,0,0,1,5.58,5.3,1.31,1.31,0,0,1,0,.28A5.59,5.59,0,0,1,3.06,20a5.44,5.44,0,0,1,5.31-5.57h.27Z"/>
        <rect class="cls-2" width="18.37" height="56.88"/>
      </g>
    </g>
  </g>
</svg>
