<svg xmlns="http://www.w3.org/2000/svg" width="44.76mm" height="9.88mm" viewBox="0 0 126.87 28">
  <defs>
    <style>
      .cls-1 {
        fill: none;
      }
    </style>
  </defs>
  <title>Element 129</title>
  <g id="Ebene_2" data-name="Ebene 2">
    <g id="Ebene_1-2" data-name="Ebene 1">
      <g>
        <path d="M126.87,18.35h-.08v1.4h-5.91v-1.4h1.88V11.76c0-1.77-.72-2.66-2.21-2.66A5.94,5.94,0,0,0,116.78,11v7.41h1.86v1.39H113V18.35h1.87V11.76c0-1.77-.72-2.66-2.17-2.66A6.32,6.32,0,0,0,109,10.93v7.44h1.85v1.39h-5.9V18.35H107V9.07h-2V7.67h3.65l.16,1.59a7.92,7.92,0,0,1,4.56-1.83,3,3,0,0,1,3.18,2,8.12,8.12,0,0,1,4.78-2c2.26,0,3.39,1.37,3.39,4.08v6.83Z"/>
        <rect class="cls-1" width="126.79" height="28"/>
      </g>
    </g>
  </g>
</svg>
