<svg xmlns="http://www.w3.org/2000/svg" width="4.67mm" height="9.88mm" viewBox="0 0 13.25 28">
  <defs>
    <style>
      .cls-1 {
        fill: none;
      }
    </style>
  </defs>
  <title>Element 116</title>
  <g id="Ebene_2" data-name="Ebene 2">
    <g id="Ebene_1-2" data-name="Ebene 1">
      <g>
        <path d="M13.24,18v1.4H9.7c-.11-.46-.19-.89-.27-1.35-.51.38-.89.65-1.18.84a6.21,6.21,0,0,1-2.78.84,3.11,3.11,0,0,1-3.38-2.83,2.57,2.57,0,0,1,0-.48c0-2.8,2.48-3.87,7.18-4V11A2.09,2.09,0,0,0,7.48,8.6a1.88,1.88,0,0,0-.58,0A8.79,8.79,0,0,0,4.35,9v2.61H2.79V8a12.39,12.39,0,0,1,4.33-.88c2.66,0,4,1.28,4,3.85v4.92c0,.79,0,1.49.09,2.11Zm-4-4.3c-3.55,0-5.25.76-5.25,2.56a1.77,1.77,0,0,0,1.57,1.95H5.9a5.68,5.68,0,0,0,3.39-1.59Z"/>
        <rect class="cls-1" width="13.25" height="28"/>
      </g>
    </g>
  </g>
</svg>
