<svg xmlns="http://www.w3.org/2000/svg" viewBox="0 0 9.45 18.15"><title>Element 22</title><g id="Ebene_2" data-name="Ebene 2"><g id="Ebene_1-2" data-name="Ebene 1"><path d="M9.45,1.34A4,4,0,0,0,7.08,3,3.37,3.37,0,0,1,8.2,5.76C8.2,8,6.77,9.24,4.37,9.24a6.73,6.73,0,0,1-1-.07A1.73,1.73,0,0,0,3,10.26c0,.89,1,1.32,2.21,1.59,1.82.41,4.1.87,4.1,3.19A2.45,2.45,0,0,1,7.9,17.39a7,7,0,0,1-3.44.75c-3,0-4.46-1-4.46-2.85A2.84,2.84,0,0,1,.34,14,5.72,5.72,0,0,1,2,12a2.07,2.07,0,0,1-.55-1.48,2.66,2.66,0,0,1,.71-1.71,3.13,3.13,0,0,1-1.66-3C.53,3.48,2,2.14,4.33,2.14A4.83,4.83,0,0,1,6,2.41,6.21,6.21,0,0,1,9.07,0ZM6.94,13.93a7.17,7.17,0,0,0-2-.73,12.46,12.46,0,0,1-1.89-.57A3.63,3.63,0,0,0,1.39,15.1c0,1.21,1,1.8,3.12,1.8s3.12-.59,3.12-1.78A1.33,1.33,0,0,0,7,13.93ZM2,5.71a2.33,2.33,0,1,0,4.65,0,2.17,2.17,0,0,0-1.9-2.39,1.85,1.85,0,0,0-.47,0A2.14,2.14,0,0,0,2,5.31a1.79,1.79,0,0,0,0,.4Z"/></g></g></svg>