<svg xmlns="http://www.w3.org/2000/svg" viewBox="0 0 9.46 10.67"><title>Element 19</title><g id="Ebene_2" data-name="Ebene 2"><g id="Ebene_1-2" data-name="Ebene 1"><path d="M9.46,9.2v1.18h-3c-.09-.39-.16-.75-.23-1.14-.43.32-.75.55-1,.71a5.19,5.19,0,0,1-2.35.71A2.64,2.64,0,0,1,0,8.27a2.81,2.81,0,0,1,0-.41c0-2.37,2.1-3.28,6.08-3.35V3.28a1.78,1.78,0,0,0-1.51-2,2,2,0,0,0-.49,0,7.46,7.46,0,0,0-2.16.36V3.92H.61V.75A10.45,10.45,0,0,1,4.28,0Q7.66,0,7.65,3.26V7.43c0,.67,0,1.26.07,1.78ZM6.11,5.56c-3,0-4.44.64-4.44,2.16A1.49,1.49,0,0,0,3,9.37h.25A4.81,4.81,0,0,0,6.11,8Z"/></g></g></svg>