<svg xmlns="http://www.w3.org/2000/svg" viewBox="0 0 9.45 18.09"><title>Element 18</title><g id="Ebene_2" data-name="Ebene 2"><g id="Ebene_1-2" data-name="Ebene 1"><path d="M9.45,1.28A4,4,0,0,0,7.08,2.94,3.37,3.37,0,0,1,8.2,5.7c0,2.19-1.43,3.48-3.83,3.48a6.73,6.73,0,0,1-1-.07A1.73,1.73,0,0,0,3,10.2c0,.89,1,1.32,2.21,1.59,1.82.41,4.1.87,4.1,3.19A2.45,2.45,0,0,1,7.9,17.33a7,7,0,0,1-3.44.75c-3,0-4.46-1-4.46-2.85a2.84,2.84,0,0,1,.34-1.34,5.72,5.72,0,0,1,1.69-2,2.07,2.07,0,0,1-.55-1.48A2.66,2.66,0,0,1,2.19,8.7a3.13,3.13,0,0,1-1.66-3C.53,3.42,2,2.08,4.33,2.08A4.83,4.83,0,0,1,6,2.35,6.25,6.25,0,0,1,9.08,0ZM6.94,13.87a7.17,7.17,0,0,0-2-.73,12.46,12.46,0,0,1-1.89-.57,3.59,3.59,0,0,0-1.62,2.51c0,1.21,1,1.8,3.12,1.8s3.12-.59,3.12-1.78A1.35,1.35,0,0,0,6.94,13.87ZM2,5.65a2.33,2.33,0,1,0,4.65,0A2.18,2.18,0,0,0,4.74,3.26H4.3A2.14,2.14,0,0,0,2,5.24,1.88,1.88,0,0,0,2,5.65Z"/></g></g></svg>