<svg xmlns="http://www.w3.org/2000/svg" viewBox="0 0 9.43 18.13"><title>Element 24</title><g id="Ebene_2" data-name="Ebene 2"><g id="Ebene_1-2" data-name="Ebene 1"><path d="M9.43,1.32A4,4,0,0,0,7.08,3,3.37,3.37,0,0,1,8.2,5.74c0,2.19-1.43,3.48-3.83,3.48a6.73,6.73,0,0,1-1-.07A1.73,1.73,0,0,0,3,10.24c0,.89,1,1.32,2.21,1.59,1.82.41,4.1.87,4.1,3.19A2.45,2.45,0,0,1,7.9,17.37a7,7,0,0,1-3.44.75c-3,0-4.46-1-4.46-2.85a2.84,2.84,0,0,1,.34-1.34,5.72,5.72,0,0,1,1.69-2,2.07,2.07,0,0,1-.55-1.48,2.66,2.66,0,0,1,.71-1.71,3.13,3.13,0,0,1-1.66-3C.53,3.46,2,2.12,4.33,2.12A4.83,4.83,0,0,1,6,2.39,6.24,6.24,0,0,1,9.08,0ZM6.92,13.91a7.17,7.17,0,0,0-2-.73A12.46,12.46,0,0,1,3,12.61a3.57,3.57,0,0,0-1.67,2.47c0,1.21,1,1.8,3.12,1.8S7.6,16.29,7.6,15.1a1.33,1.33,0,0,0-.68-1.19ZM2,5.69a2.33,2.33,0,1,0,4.65,0,2.16,2.16,0,0,0-1.88-2.4,2.46,2.46,0,0,0-.47,0A2.14,2.14,0,0,0,2,5.23a2.34,2.34,0,0,0,0,.46Z"/></g></g></svg>