<svg xmlns="http://www.w3.org/2000/svg" viewBox="0 0 11.04 35.98"><defs><style>.cls-1{fill:#e50c7e;}</style></defs><title>Element 38</title><g id="Ebene_2" data-name="Ebene 2"><g id="Ebene_1-2" data-name="Ebene 1"><path class="cls-1" d="M0,31.83c2.51-2.56,3.25-3.64,3.25-5.07a3.92,3.92,0,0,0-1-2.11,4.55,4.55,0,0,1-1-2.79c0-2.45,1.88-4.1,4.44-4.1,3.25,0,5.35,2.68,5.35,6.55C11,28,8.82,31.88,4.32,36ZM5.64,0a4.61,4.61,0,0,1,4.73,4.49v.24a4.73,4.73,0,0,1-9.45,0A4.61,4.61,0,0,1,5.42,0h.22Z"/></g></g></svg>