<svg xmlns="http://www.w3.org/2000/svg" viewBox="0 0 18.59 10.48"><title>Element 1</title><g id="Ebene_2" data-name="Ebene 2"><g id="Ebene_1-2" data-name="Ebene 1"><path d="M18.59,9.28h-.07v1.18h-5V9.28h1.59V3.7c0-1.5-.61-2.25-1.87-2.25A5,5,0,0,0,10.05,3V9.29h1.57v1.18H6.89V9.29H8.48V3.71c0-1.5-.61-2.25-1.84-2.25A5.3,5.3,0,0,0,3.43,3V9.3H5v1.18H0V9.3H1.78V1.44H.07V.23H3.19l.14,1.34A6.69,6.69,0,0,1,7.18,0,2.52,2.52,0,0,1,9.87,1.75,6.8,6.8,0,0,1,13.92,0c1.91,0,2.87,1.16,2.87,3.46V9.26Z"/></g></g></svg>