<svg xmlns="http://www.w3.org/2000/svg" viewBox="0 0 18.6 10.46"><title>Element 20</title><g id="Ebene_2" data-name="Ebene 2"><g id="Ebene_1-2" data-name="Ebene 1"><path d="M18.6,9.27h-.07v1.18h-5V9.27h1.59V3.69c0-1.5-.61-2.25-1.87-2.25A5,5,0,0,0,10.06,3V9.28h1.57v1.18H6.89V9.27H8.48V3.69c0-1.5-.61-2.25-1.84-2.25A5.3,5.3,0,0,0,3.43,3V9.28H5v1.18H0V9.27H1.78V1.41H.11V.23H3.2l.14,1.34A6.69,6.69,0,0,1,7.2,0,2.52,2.52,0,0,1,9.89,1.75a6.8,6.8,0,0,1,4-1.73c1.91,0,2.87,1.16,2.87,3.46V9.26Z"/></g></g></svg>