<svg xmlns="http://www.w3.org/2000/svg" viewBox="0 0 49.13 26.46"><title>Element 39</title><g id="Ebene_2" data-name="Ebene 2"><g id="Ebene_1-2" data-name="Ebene 1"><path d="M49,21.11l.11-.06v5.41H33.93V21.05H36.8V10.57c0-2.45-1-3.66-3-3.66-1.54,0-3.3.85-5.24,2.51V21.05h2.9v5.41H17.65V21.05h2.9V10.57c0-2.45-1-3.64-3-3.64-1.48,0-3.19.85-5.18,2.51V21.05H15.2v5.41H0V21.05H4.27V5.91H.06V.49H11.22L11.8,3a16.7,16.7,0,0,1,9.05-3c3.3,0,5.52,1.25,6.6,3.7C31,1.25,34.17.06,37.07.06c5.07,0,7.63,3,7.63,9.11v12Z"/></g></g></svg>